<?xml version="1.0" encoding="UTF-8" standalone="no"?>
<!DOCTYPE svg PUBLIC "-//W3C//DTD SVG 1.1//EN" "http://www.w3.org/Graphics/SVG/1.1/DTD/svg11.dtd">
<svg width="100%" height="100%" viewBox="0 0 128 120" version="1.1" xmlns="http://www.w3.org/2000/svg" xmlns:xlink="http://www.w3.org/1999/xlink" xml:space="preserve" xmlns:serif="http://www.serif.com/" style="fill-rule:evenodd;clip-rule:evenodd;stroke-linecap:round;stroke-linejoin:round;stroke-miterlimit:1.5;">
    <g transform="matrix(1,0,0,1,-0.0247141,-0.14205)">
        <path d="M93.47,98.617C98.348,98.617 102.308,102.577 102.308,107.455C102.308,112.333 98.348,116.293 93.47,116.293C88.593,116.293 84.632,112.333 84.632,107.455C84.632,102.577 88.593,98.617 93.47,98.617ZM48.55,98.57C53.428,98.57 57.388,102.531 57.388,107.408C57.388,112.286 53.428,116.247 48.55,116.247C43.672,116.247 39.712,112.286 39.712,107.408C39.712,102.531 43.672,98.57 48.55,98.57ZM106.149,95.558L36.47,95.558L36.47,95.944L106.149,95.944L106.149,95.558ZM44.163,74.82L36.639,94.671L37.093,94.844L44.618,74.992L44.163,74.82ZM123.03,26.17L123.127,25.876L123.572,26.023L106.29,78.392L105.966,78.285L105.966,78.844L45.39,78.844L45.39,77.939L105.946,77.939L111.17,62.108L57.508,62.108L57.508,60.525L111.297,60.525L111.297,61.722L122.903,26.556L43.939,26.556L43.939,25.588L123.03,25.588L123.03,26.17ZM23.186,12.423L3.79,4.994L4.224,3.859L24.177,11.501L24.053,11.826L24.269,11.751L46.773,76.717L45.599,77.124L23.186,12.423ZM116.681,42.154L52.9,42.154L52.9,43.483L116.681,43.483L116.681,42.154Z" style="fill:none;stroke:rgb(5,0,0);stroke-width:7px;"/>
    </g>
</svg>
